<svg width="182" height="42" viewBox="0 0 182 42" fill="none" xmlns="http://www.w3.org/2000/svg">
<path d="M61.9242 33C60.9598 33 59.9954 32.9228 59.0311 32.7683C58.0667 32.6359 57.1571 32.4262 56.3023 32.1393C55.4475 31.8303 54.6804 31.4552 54.0009 31.0138C53.6064 30.749 53.3324 30.429 53.179 30.0538C53.0256 29.6786 52.9708 29.3145 53.0146 28.9614C53.0804 28.5862 53.2228 28.2662 53.442 28.0014C53.6831 27.7145 53.979 27.5379 54.3297 27.4717C54.6804 27.4055 55.0639 27.5048 55.4804 27.7697C56.4448 28.3435 57.4639 28.7628 58.5379 29.0276C59.6119 29.2924 60.7407 29.4248 61.9242 29.4248C63.6557 29.4248 64.916 29.1379 65.7051 28.5641C66.4941 27.9683 66.8886 27.2069 66.8886 26.28C66.8886 25.5076 66.6037 24.9007 66.0338 24.4593C65.4859 24.0179 64.5324 23.6538 63.1735 23.3669L59.5571 22.6055C57.4749 22.1641 55.9187 21.4248 54.8886 20.3876C53.8804 19.3283 53.3763 17.9379 53.3763 16.2166C53.3763 15.1352 53.5954 14.1531 54.0338 13.2703C54.4721 12.3876 55.0858 11.6262 55.8749 10.9862C56.6859 10.3462 57.6393 9.86069 58.7352 9.52965C59.853 9.17655 61.0804 9 62.4174 9C63.7324 9 64.9818 9.16552 66.1653 9.49655C67.3489 9.82759 68.4119 10.3131 69.3544 10.9531C69.7051 11.1959 69.9352 11.4938 70.0448 11.8469C70.1763 12.2 70.2092 12.5531 70.1434 12.9062C70.0777 13.2372 69.9242 13.5241 69.6831 13.7669C69.442 14.0097 69.1352 14.1531 68.7626 14.1972C68.4119 14.2414 68.0064 14.131 67.5462 13.8662C66.7352 13.4028 65.9133 13.0717 65.0804 12.8731C64.2475 12.6745 63.3489 12.5752 62.3845 12.5752C61.3763 12.5752 60.5105 12.7186 59.7872 13.0055C59.0639 13.2924 58.505 13.7007 58.1105 14.2303C57.7379 14.7379 57.5516 15.3448 57.5516 16.051C57.5516 16.8455 57.8146 17.4855 58.3407 17.971C58.8667 18.4345 59.7653 18.7986 61.0365 19.0634L64.6201 19.8248C66.79 20.2883 68.4009 21.0166 69.453 22.0097C70.527 23.0028 71.064 24.3269 71.064 25.9821C71.064 27.0414 70.8448 28.0014 70.4064 28.8621C69.99 29.7228 69.3763 30.4621 68.5653 31.08C67.7763 31.6979 66.8229 32.1724 65.7051 32.5035C64.5872 32.8345 63.327 33 61.9242 33Z" fill="#01121C"/>
<path d="M76.3196 32.9338C75.6621 32.9338 75.158 32.7572 74.8073 32.4041C74.4566 32.029 74.2813 31.4993 74.2813 30.8152V11.1517C74.2813 10.4676 74.4566 9.94897 74.8073 9.59586C75.158 9.24276 75.6621 9.06621 76.3196 9.06621C76.9772 9.06621 77.4813 9.24276 77.832 9.59586C78.2046 9.94897 78.3909 10.4676 78.3909 11.1517V23.3669H78.4566L83.8813 17.6069C84.3196 17.1655 84.7032 16.8234 85.032 16.5807C85.3607 16.3379 85.8101 16.2166 86.3799 16.2166C86.9498 16.2166 87.3772 16.371 87.6621 16.68C87.969 16.9669 88.1224 17.32 88.1224 17.7393C88.1224 18.1586 87.9251 18.5779 87.5306 18.9972L81.8101 25.0883V23.3669L88.0895 30.1862C88.484 30.6055 88.6594 31.0359 88.6155 31.4772C88.5936 31.8966 88.4183 32.2497 88.0895 32.5366C87.7608 32.8014 87.3443 32.9338 86.8402 32.9338C86.2265 32.9338 85.7333 32.8124 85.3607 32.5697C85.0101 32.3269 84.6155 31.9628 84.1772 31.4772L78.4566 25.4524H78.3909V30.8152C78.3909 32.2276 77.7005 32.9338 76.3196 32.9338Z" fill="#01121C"/>
<path d="M98.9181 33C97.2523 33 95.8057 32.6579 94.5783 31.9738C93.3509 31.2897 92.3975 30.3186 91.718 29.0607C91.0386 27.7807 90.6989 26.28 90.6989 24.5586C90.6989 23.2566 90.8852 22.0979 91.2578 21.0828C91.6523 20.0455 92.2112 19.1628 92.9345 18.4345C93.6578 17.6841 94.5235 17.1214 95.5317 16.7462C96.54 16.349 97.6687 16.1503 98.9181 16.1503C100.584 16.1503 102.03 16.4924 103.258 17.1766C104.485 17.8607 105.439 18.8317 106.118 20.0897C106.798 21.3476 107.137 22.8372 107.137 24.5586C107.137 25.8607 106.94 27.0303 106.545 28.0676C106.173 29.1048 105.625 29.9986 104.902 30.749C104.178 31.4772 103.313 32.04 102.304 32.4372C101.296 32.8124 100.167 33 98.9181 33ZM98.9181 29.8552C99.729 29.8552 100.441 29.6566 101.055 29.2593C101.669 28.8621 102.14 28.2772 102.469 27.5048C102.819 26.7103 102.995 25.7283 102.995 24.5586C102.995 22.7931 102.622 21.48 101.877 20.6193C101.132 19.7366 100.145 19.2952 98.9181 19.2952C98.1071 19.2952 97.3948 19.4938 96.7811 19.891C96.1674 20.2662 95.6852 20.851 95.3345 21.6455C95.0057 22.4179 94.8413 23.389 94.8413 24.5586C94.8413 26.3021 95.2139 27.6262 95.9591 28.531C96.7043 29.4138 97.6907 29.8552 98.9181 29.8552Z" fill="#01121C"/>
<path d="M117.861 33C116.195 33 114.748 32.6579 113.521 31.9738C112.294 31.2897 111.34 30.3186 110.661 29.0607C109.981 27.7807 109.642 26.28 109.642 24.5586C109.642 23.2566 109.828 22.0979 110.2 21.0828C110.595 20.0455 111.154 19.1628 111.877 18.4345C112.6 17.6841 113.466 17.1214 114.474 16.7462C115.483 16.349 116.611 16.1503 117.861 16.1503C119.526 16.1503 120.973 16.4924 122.2 17.1766C123.428 17.8607 124.381 18.8317 125.061 20.0897C125.74 21.3476 126.08 22.8372 126.08 24.5586C126.08 25.8607 125.883 27.0303 125.488 28.0676C125.116 29.1048 124.568 29.9986 123.844 30.749C123.121 31.4772 122.255 32.04 121.247 32.4372C120.239 32.8124 119.11 33 117.861 33ZM117.861 29.8552C118.672 29.8552 119.384 29.6566 119.998 29.2593C120.611 28.8621 121.083 28.2772 121.411 27.5048C121.762 26.7103 121.937 25.7283 121.937 24.5586C121.937 22.7931 121.565 21.48 120.82 20.6193C120.074 19.7366 119.088 19.2952 117.861 19.2952C117.05 19.2952 116.337 19.4938 115.724 19.891C115.11 20.2662 114.628 20.851 114.277 21.6455C113.948 22.4179 113.784 23.389 113.784 24.5586C113.784 26.3021 114.157 27.6262 114.902 28.531C115.647 29.4138 116.633 29.8552 117.861 29.8552Z" fill="#01121C"/>
<path d="M134.962 33C133.143 33 131.773 32.4814 130.853 31.4441C129.932 30.3848 129.472 28.84 129.472 26.8097V11.1517C129.472 10.4676 129.647 9.94897 129.998 9.59586C130.349 9.24276 130.853 9.06621 131.51 9.06621C132.168 9.06621 132.672 9.24276 133.023 9.59586C133.395 9.94897 133.581 10.4676 133.581 11.1517V26.611C133.581 27.6262 133.79 28.3766 134.206 28.8621C134.645 29.3476 135.258 29.5903 136.047 29.5903C136.223 29.5903 136.387 29.5903 136.54 29.5903C136.694 29.5683 136.847 29.5462 137.001 29.5241C137.308 29.48 137.516 29.5683 137.625 29.789C137.735 29.9876 137.79 30.4069 137.79 31.0469C137.79 31.5986 137.68 32.029 137.461 32.3379C137.242 32.6469 136.88 32.8345 136.376 32.9007C136.157 32.9228 135.927 32.9448 135.686 32.9669C135.445 32.989 135.203 33 134.962 33Z" fill="#01121C"/>
<path d="M145.695 33C144.753 33 143.755 32.9007 142.703 32.7021C141.651 32.5034 140.709 32.1614 139.876 31.6759C139.525 31.4552 139.273 31.2014 139.12 30.9145C138.988 30.6055 138.933 30.3076 138.955 30.0207C138.999 29.7117 139.109 29.4469 139.284 29.2262C139.481 29.0055 139.722 28.8621 140.007 28.7959C140.314 28.7297 140.643 28.7848 140.994 28.9614C141.87 29.3807 142.692 29.6786 143.459 29.8552C144.227 30.0097 144.983 30.0869 145.728 30.0869C146.78 30.0869 147.558 29.9103 148.062 29.5572C148.588 29.1821 148.851 28.6966 148.851 28.1007C148.851 27.5931 148.676 27.2069 148.325 26.9421C147.996 26.6552 147.492 26.4455 146.813 26.3131L143.525 25.6841C142.166 25.4193 141.125 24.9228 140.402 24.1945C139.701 23.4441 139.35 22.4841 139.35 21.3145C139.35 20.2552 139.635 19.3393 140.205 18.5669C140.796 17.7945 141.607 17.1986 142.637 16.7793C143.668 16.36 144.851 16.1503 146.188 16.1503C147.153 16.1503 148.051 16.2607 148.884 16.4814C149.739 16.68 150.561 17 151.35 17.4414C151.679 17.6179 151.898 17.8497 152.007 18.1366C152.139 18.4234 152.172 18.7214 152.106 19.0303C152.04 19.3172 151.909 19.5821 151.711 19.8248C151.514 20.0455 151.262 20.189 150.955 20.2552C150.67 20.2993 150.342 20.2331 149.969 20.0566C149.29 19.7034 148.632 19.4497 147.996 19.2952C147.383 19.1407 146.791 19.0634 146.221 19.0634C145.147 19.0634 144.347 19.251 143.821 19.6262C143.317 20.0014 143.065 20.4979 143.065 21.1159C143.065 21.5793 143.218 21.9655 143.525 22.2745C143.832 22.5834 144.303 22.7931 144.939 22.9034L148.227 23.5324C149.651 23.7972 150.725 24.2828 151.448 24.989C152.194 25.6952 152.566 26.6441 152.566 27.8359C152.566 29.4469 151.942 30.7159 150.692 31.6428C149.443 32.5476 147.777 33 145.695 33Z" fill="#01121C"/>
<path d="M163.787 33C161.967 33 160.4 32.6579 159.085 31.9738C157.77 31.2897 156.751 30.3186 156.028 29.0607C155.326 27.8028 154.976 26.3131 154.976 24.5917C154.976 22.9145 155.315 21.4469 155.995 20.189C156.696 18.931 157.65 17.949 158.855 17.2428C160.082 16.5145 161.474 16.1503 163.03 16.1503C164.17 16.1503 165.189 16.3379 166.088 16.7131C167.008 17.0883 167.787 17.629 168.422 18.3352C169.08 19.0414 169.573 19.9021 169.902 20.9172C170.252 21.9103 170.428 23.0359 170.428 24.2938C170.428 24.691 170.285 25 170 25.2207C169.737 25.4193 169.354 25.5186 168.85 25.5186H158.296V23.1352H167.534L167.008 23.6317C167.008 22.6166 166.855 21.7669 166.548 21.0828C166.263 20.3986 165.836 19.88 165.266 19.5269C164.718 19.1517 164.028 18.9641 163.195 18.9641C162.274 18.9641 161.485 19.1848 160.828 19.6262C160.192 20.0455 159.699 20.6524 159.348 21.4469C159.019 22.2193 158.855 23.1462 158.855 24.2276V24.4593C158.855 26.269 159.271 27.6262 160.104 28.531C160.959 29.4138 162.208 29.8552 163.852 29.8552C164.422 29.8552 165.058 29.789 165.759 29.6566C166.482 29.5021 167.162 29.2483 167.797 28.8952C168.258 28.6303 168.663 28.52 169.014 28.5641C169.365 28.5862 169.639 28.7076 169.836 28.9283C170.055 29.149 170.187 29.4248 170.23 29.7559C170.274 30.0648 170.208 30.3848 170.033 30.7159C169.88 31.0469 169.606 31.3338 169.211 31.5766C168.444 32.0621 167.556 32.4262 166.548 32.669C165.562 32.8897 164.641 33 163.787 33Z" fill="#01121C"/>
<path d="M179.173 33C177.353 33 175.984 32.4814 175.063 31.4441C174.142 30.3848 173.682 28.84 173.682 26.8097V11.1517C173.682 10.4676 173.858 9.94897 174.208 9.59586C174.559 9.24276 175.063 9.06621 175.721 9.06621C176.378 9.06621 176.882 9.24276 177.233 9.59586C177.605 9.94897 177.792 10.4676 177.792 11.1517V26.611C177.792 27.6262 178 28.3766 178.416 28.8621C178.855 29.3476 179.468 29.5903 180.258 29.5903C180.433 29.5903 180.597 29.5903 180.751 29.5903C180.904 29.5683 181.058 29.5462 181.211 29.5241C181.518 29.48 181.726 29.5683 181.836 29.789C181.945 29.9876 182 30.4069 182 31.0469C182 31.5986 181.89 32.029 181.671 32.3379C181.452 32.6469 181.09 32.8345 180.586 32.9007C180.367 32.9228 180.137 32.9448 179.896 32.9669C179.655 32.989 179.414 33 179.173 33Z" fill="#01121C"/>
<path d="M22.2915 10.1535L16.7208 21.0867H24.7886L19.4004 31.2304H15.5892C11.2927 31.2304 7.39025 29.4796 4.56966 26.665C1.74908 23.8302 0 19.9328 0 15.6207C0 6.99594 6.98591 0 15.5892 0H35.9704L30.5817 10.1535H22.2921H22.2915Z" fill="#54ABDB"/>
<path d="M22.5924 31.5027L28.1631 20.5695H20.0953L25.4835 10.4258H29.2947C33.5911 10.4258 37.4936 12.1766 40.3142 14.9912C43.1348 17.826 44.8839 21.7234 44.8839 26.0355C44.8839 34.6603 37.898 41.6562 29.2947 41.6562H8.91345L14.3022 31.5027H22.5918H22.5924Z" fill="#54ABDB"/>
</svg>
