
<svg width="182" height="43" viewBox="0 0 182 43" fill="none" xmlns="http://www.w3.org/2000/svg">
<path d="M61.9242 33.5C60.9598 33.5 59.9954 33.4228 59.0311 33.2683C58.0667 33.1359 57.1571 32.9262 56.3023 32.6393C55.4475 32.3303 54.6804 31.9552 54.0009 31.5138C53.6064 31.249 53.3324 30.929 53.179 30.5538C53.0256 30.1786 52.9708 29.8145 53.0146 29.4614C53.0804 29.0862 53.2228 28.7662 53.442 28.5014C53.6831 28.2145 53.979 28.0379 54.3297 27.9717C54.6804 27.9055 55.0639 28.0048 55.4804 28.2697C56.4448 28.8435 57.4639 29.2628 58.5379 29.5276C59.6119 29.7924 60.7407 29.9248 61.9242 29.9248C63.6557 29.9248 64.916 29.6379 65.7051 29.0641C66.4941 28.4683 66.8886 27.7069 66.8886 26.78C66.8886 26.0076 66.6037 25.4007 66.0338 24.9593C65.4859 24.5179 64.5324 24.1538 63.1735 23.8669L59.5571 23.1055C57.4749 22.6641 55.9187 21.9248 54.8886 20.8876C53.8804 19.8283 53.3763 18.4379 53.3763 16.7166C53.3763 15.6352 53.5954 14.6531 54.0338 13.7703C54.4721 12.8876 55.0858 12.1262 55.8749 11.4862C56.6859 10.8462 57.6393 10.3607 58.7352 10.0297C59.853 9.67655 61.0804 9.5 62.4174 9.5C63.7324 9.5 64.9818 9.66552 66.1653 9.99655C67.3489 10.3276 68.4119 10.8131 69.3544 11.4531C69.7051 11.6959 69.9352 11.9938 70.0448 12.3469C70.1763 12.7 70.2092 13.0531 70.1434 13.4062C70.0777 13.7372 69.9242 14.0241 69.6831 14.2669C69.442 14.5097 69.1352 14.6531 68.7626 14.6972C68.4119 14.7414 68.0064 14.631 67.5462 14.3662C66.7352 13.9028 65.9133 13.5717 65.0804 13.3731C64.2475 13.1745 63.3489 13.0752 62.3845 13.0752C61.3763 13.0752 60.5105 13.2186 59.7872 13.5055C59.0639 13.7924 58.505 14.2007 58.1105 14.7303C57.7379 15.2379 57.5516 15.8448 57.5516 16.551C57.5516 17.3455 57.8146 17.9855 58.3407 18.471C58.8667 18.9345 59.7653 19.2986 61.0365 19.5634L64.6201 20.3248C66.79 20.7883 68.4009 21.5166 69.453 22.5097C70.527 23.5028 71.064 24.8269 71.064 26.4821C71.064 27.5414 70.8448 28.5014 70.4064 29.3621C69.99 30.2228 69.3763 30.9621 68.5653 31.58C67.7763 32.1979 66.8229 32.6724 65.7051 33.0035C64.5872 33.3345 63.327 33.5 61.9242 33.5Z" fill="white"/>
<path d="M76.3196 33.4338C75.6621 33.4338 75.158 33.2572 74.8073 32.9041C74.4566 32.529 74.2813 31.9993 74.2813 31.3152V11.6517C74.2813 10.9676 74.4566 10.449 74.8073 10.0959C75.158 9.74276 75.6621 9.56621 76.3196 9.56621C76.9772 9.56621 77.4813 9.74276 77.832 10.0959C78.2046 10.449 78.3909 10.9676 78.3909 11.6517V23.8669H78.4566L83.8813 18.1069C84.3196 17.6655 84.7032 17.3234 85.032 17.0807C85.3607 16.8379 85.8101 16.7166 86.3799 16.7166C86.9498 16.7166 87.3772 16.871 87.6621 17.18C87.969 17.4669 88.1224 17.82 88.1224 18.2393C88.1224 18.6586 87.9251 19.0779 87.5306 19.4972L81.8101 25.5883V23.8669L88.0895 30.6862C88.484 31.1055 88.6594 31.5359 88.6155 31.9772C88.5936 32.3966 88.4183 32.7497 88.0895 33.0366C87.7608 33.3014 87.3443 33.4338 86.8402 33.4338C86.2265 33.4338 85.7333 33.3124 85.3607 33.0697C85.0101 32.8269 84.6155 32.4628 84.1772 31.9772L78.4566 25.9524H78.3909V31.3152C78.3909 32.7276 77.7005 33.4338 76.3196 33.4338Z" fill="white"/>
<path d="M98.9181 33.5C97.2523 33.5 95.8057 33.1579 94.5783 32.4738C93.3509 31.7897 92.3975 30.8186 91.718 29.5607C91.0386 28.2807 90.6989 26.78 90.6989 25.0586C90.6989 23.7566 90.8852 22.5979 91.2578 21.5828C91.6523 20.5455 92.2112 19.6628 92.9345 18.9345C93.6578 18.1841 94.5235 17.6214 95.5317 17.2462C96.54 16.849 97.6687 16.6503 98.9181 16.6503C100.584 16.6503 102.03 16.9924 103.258 17.6766C104.485 18.3607 105.439 19.3317 106.118 20.5897C106.798 21.8476 107.137 23.3372 107.137 25.0586C107.137 26.3607 106.94 27.5303 106.545 28.5676C106.173 29.6048 105.625 30.4986 104.902 31.249C104.178 31.9772 103.313 32.54 102.304 32.9372C101.296 33.3124 100.167 33.5 98.9181 33.5ZM98.9181 30.3552C99.729 30.3552 100.441 30.1566 101.055 29.7593C101.669 29.3621 102.14 28.7772 102.469 28.0048C102.819 27.2103 102.995 26.2283 102.995 25.0586C102.995 23.2931 102.622 21.98 101.877 21.1193C101.132 20.2366 100.145 19.7952 98.9181 19.7952C98.1071 19.7952 97.3948 19.9938 96.7811 20.391C96.1674 20.7662 95.6852 21.351 95.3345 22.1455C95.0057 22.9179 94.8413 23.889 94.8413 25.0586C94.8413 26.8021 95.2139 28.1262 95.9591 29.031C96.7043 29.9138 97.6907 30.3552 98.9181 30.3552Z" fill="white"/>
<path d="M117.861 33.5C116.195 33.5 114.748 33.1579 113.521 32.4738C112.294 31.7897 111.34 30.8186 110.661 29.5607C109.981 28.2807 109.642 26.78 109.642 25.0586C109.642 23.7566 109.828 22.5979 110.2 21.5828C110.595 20.5455 111.154 19.6628 111.877 18.9345C112.6 18.1841 113.466 17.6214 114.474 17.2462C115.483 16.849 116.611 16.6503 117.861 16.6503C119.526 16.6503 120.973 16.9924 122.2 17.6766C123.428 18.3607 124.381 19.3317 125.061 20.5897C125.74 21.8476 126.08 23.3372 126.08 25.0586C126.08 26.3607 125.883 27.5303 125.488 28.5676C125.116 29.6048 124.568 30.4986 123.844 31.249C123.121 31.9772 122.255 32.54 121.247 32.9372C120.239 33.3124 119.11 33.5 117.861 33.5ZM117.861 30.3552C118.672 30.3552 119.384 30.1566 119.998 29.7593C120.611 29.3621 121.083 28.7772 121.411 28.0048C121.762 27.2103 121.937 26.2283 121.937 25.0586C121.937 23.2931 121.565 21.98 120.82 21.1193C120.074 20.2366 119.088 19.7952 117.861 19.7952C117.05 19.7952 116.337 19.9938 115.724 20.391C115.11 20.7662 114.628 21.351 114.277 22.1455C113.948 22.9179 113.784 23.889 113.784 25.0586C113.784 26.8021 114.157 28.1262 114.902 29.031C115.647 29.9138 116.633 30.3552 117.861 30.3552Z" fill="white"/>
<path d="M134.962 33.5C133.143 33.5 131.773 32.9814 130.853 31.9441C129.932 30.8848 129.472 29.34 129.472 27.3097V11.6517C129.472 10.9676 129.647 10.449 129.998 10.0959C130.349 9.74276 130.853 9.56621 131.51 9.56621C132.168 9.56621 132.672 9.74276 133.023 10.0959C133.395 10.449 133.581 10.9676 133.581 11.6517V27.111C133.581 28.1262 133.79 28.8766 134.206 29.3621C134.645 29.8476 135.258 30.0903 136.047 30.0903C136.223 30.0903 136.387 30.0903 136.54 30.0903C136.694 30.0683 136.847 30.0462 137.001 30.0241C137.308 29.98 137.516 30.0683 137.625 30.289C137.735 30.4876 137.79 30.9069 137.79 31.5469C137.79 32.0986 137.68 32.529 137.461 32.8379C137.242 33.1469 136.88 33.3345 136.376 33.4007C136.157 33.4228 135.927 33.4448 135.686 33.4669C135.445 33.489 135.203 33.5 134.962 33.5Z" fill="white"/>
<path d="M145.695 33.5C144.753 33.5 143.755 33.4007 142.703 33.2021C141.651 33.0034 140.709 32.6614 139.876 32.1759C139.525 31.9552 139.273 31.7014 139.12 31.4145C138.988 31.1055 138.933 30.8076 138.955 30.5207C138.999 30.2117 139.109 29.9469 139.284 29.7262C139.481 29.5055 139.722 29.3621 140.007 29.2959C140.314 29.2297 140.643 29.2848 140.994 29.4614C141.87 29.8807 142.692 30.1786 143.459 30.3552C144.227 30.5097 144.983 30.5869 145.728 30.5869C146.78 30.5869 147.558 30.4103 148.062 30.0572C148.588 29.6821 148.851 29.1966 148.851 28.6007C148.851 28.0931 148.676 27.7069 148.325 27.4421C147.996 27.1552 147.492 26.9455 146.813 26.8131L143.525 26.1841C142.166 25.9193 141.125 25.4228 140.402 24.6945C139.701 23.9441 139.35 22.9841 139.35 21.8145C139.35 20.7552 139.635 19.8393 140.205 19.0669C140.796 18.2945 141.607 17.6986 142.637 17.2793C143.668 16.86 144.851 16.6503 146.188 16.6503C147.153 16.6503 148.051 16.7607 148.884 16.9814C149.739 17.18 150.561 17.5 151.35 17.9414C151.679 18.1179 151.898 18.3497 152.007 18.6366C152.139 18.9234 152.172 19.2214 152.106 19.5303C152.04 19.8172 151.909 20.0821 151.711 20.3248C151.514 20.5455 151.262 20.689 150.955 20.7552C150.67 20.7993 150.342 20.7331 149.969 20.5566C149.29 20.2034 148.632 19.9497 147.996 19.7952C147.383 19.6407 146.791 19.5634 146.221 19.5634C145.147 19.5634 144.347 19.751 143.821 20.1262C143.317 20.5014 143.065 20.9979 143.065 21.6159C143.065 22.0793 143.218 22.4655 143.525 22.7745C143.832 23.0834 144.303 23.2931 144.939 23.4034L148.227 24.0324C149.651 24.2972 150.725 24.7828 151.448 25.489C152.194 26.1952 152.566 27.1441 152.566 28.3359C152.566 29.9469 151.942 31.2159 150.692 32.1428C149.443 33.0476 147.777 33.5 145.695 33.5Z" fill="white"/>
<path d="M163.787 33.5C161.967 33.5 160.4 33.1579 159.085 32.4738C157.77 31.7897 156.751 30.8186 156.028 29.5607C155.326 28.3028 154.976 26.8131 154.976 25.0917C154.976 23.4145 155.315 21.9469 155.995 20.689C156.696 19.431 157.65 18.449 158.855 17.7428C160.082 17.0145 161.474 16.6503 163.03 16.6503C164.17 16.6503 165.189 16.8379 166.088 17.2131C167.008 17.5883 167.787 18.129 168.422 18.8352C169.08 19.5414 169.573 20.4021 169.902 21.4172C170.252 22.4103 170.428 23.5359 170.428 24.7938C170.428 25.191 170.285 25.5 170 25.7207C169.737 25.9193 169.354 26.0186 168.85 26.0186H158.296V23.6352H167.534L167.008 24.1317C167.008 23.1166 166.855 22.2669 166.548 21.5828C166.263 20.8986 165.836 20.38 165.266 20.0269C164.718 19.6517 164.028 19.4641 163.195 19.4641C162.274 19.4641 161.485 19.6848 160.828 20.1262C160.192 20.5455 159.699 21.1524 159.348 21.9469C159.019 22.7193 158.855 23.6462 158.855 24.7276V24.9593C158.855 26.769 159.271 28.1262 160.104 29.031C160.959 29.9138 162.208 30.3552 163.852 30.3552C164.422 30.3552 165.058 30.289 165.759 30.1566C166.482 30.0021 167.162 29.7483 167.797 29.3952C168.258 29.1303 168.663 29.02 169.014 29.0641C169.365 29.0862 169.639 29.2076 169.836 29.4283C170.055 29.649 170.187 29.9248 170.23 30.2559C170.274 30.5648 170.208 30.8848 170.033 31.2159C169.88 31.5469 169.606 31.8338 169.211 32.0766C168.444 32.5621 167.556 32.9262 166.548 33.169C165.562 33.3897 164.641 33.5 163.787 33.5Z" fill="white"/>
<path d="M179.173 33.5C177.353 33.5 175.984 32.9814 175.063 31.9441C174.142 30.8848 173.682 29.34 173.682 27.3097V11.6517C173.682 10.9676 173.858 10.449 174.208 10.0959C174.559 9.74276 175.063 9.56621 175.721 9.56621C176.378 9.56621 176.882 9.74276 177.233 10.0959C177.605 10.449 177.792 10.9676 177.792 11.6517V27.111C177.792 28.1262 178 28.8766 178.416 29.3621C178.855 29.8476 179.468 30.0903 180.258 30.0903C180.433 30.0903 180.597 30.0903 180.751 30.0903C180.904 30.0683 181.058 30.0462 181.211 30.0241C181.518 29.98 181.726 30.0683 181.836 30.289C181.945 30.4876 182 30.9069 182 31.5469C182 32.0986 181.89 32.529 181.671 32.8379C181.452 33.1469 181.09 33.3345 180.586 33.4007C180.367 33.4228 180.137 33.4448 179.896 33.4669C179.655 33.489 179.414 33.5 179.173 33.5Z" fill="white"/>
<path d="M22.2915 10.6535L16.7208 21.5867H24.7886L19.4004 31.7304H15.5892C11.2927 31.7304 7.39025 29.9796 4.56966 27.165C1.74908 24.3302 0 20.4328 0 16.1207C0 7.49594 6.98591 0.5 15.5892 0.5H35.9704L30.5817 10.6535H22.2921H22.2915Z" fill="white"/>
<path d="M22.5923 32.0027L28.163 21.0695H20.0952L25.4834 10.9258H29.2946C33.591 10.9258 37.4935 12.6766 40.3141 15.4912C43.1347 18.326 44.8838 22.2234 44.8838 26.5355C44.8838 35.1603 37.8979 42.1562 29.2946 42.1562H8.91333L14.3021 32.0027H22.5917H22.5923Z" fill="white"/>
</svg>

