<svg width="183" height="47" viewBox="0 0 183 47" fill="none" xmlns="http://www.w3.org/2000/svg">
<path d="M24.7798 11.2869L18.5872 23.4406H27.5556L21.566 34.7166H17.3293C12.5533 34.7166 8.21519 32.7702 5.07976 29.6415C1.94432 26.4902 0 22.1578 0 17.3644C0 7.77687 7.76572 0 17.3293 0H39.9857L33.9954 11.2869H24.7804H24.7798Z" fill="#54ABDB"/>
<path d="M25.1138 35.02L31.3064 22.8663H22.338L28.3276 11.5903H32.5643C37.3403 11.5903 41.6784 13.5366 44.8139 16.6654C47.9493 19.8166 49.8936 24.1491 49.8936 28.9425C49.8936 38.53 42.1279 46.3069 32.5643 46.3069H9.90796L15.8982 35.02H25.1132H25.1138Z" fill="#54ABDB"/>
<path d="M68.9066 33.9646C67.7653 33.9646 66.6655 33.8608 65.6073 33.6533C64.5698 33.4666 63.6049 33.1864 62.7126 32.8129C61.8411 32.4394 61.0629 31.9933 60.3782 31.4745L61.5921 28.3309C62.2768 28.8081 62.9927 29.2231 63.7397 29.5759C64.5075 29.9079 65.3168 30.1673 66.1675 30.354C67.039 30.52 67.9521 30.603 68.9066 30.603C70.5459 30.603 71.739 30.3333 72.486 29.7938C73.233 29.2335 73.6065 28.5176 73.6065 27.6461C73.6065 27.1688 73.4924 26.7642 73.2642 26.4322C73.0359 26.0794 72.6624 25.7786 72.1436 25.5296C71.6249 25.2806 70.9401 25.0731 70.0893 24.907L66.6655 24.1912C64.6943 23.7762 63.221 23.081 62.2457 22.1058C61.2912 21.1097 60.8139 19.8025 60.8139 18.1839C60.8139 16.8144 61.1771 15.6213 61.9033 14.6045C62.6296 13.5877 63.636 12.7992 64.9225 12.239C66.209 11.6787 67.6927 11.3986 69.3735 11.3986C70.3695 11.3986 71.324 11.5023 72.237 11.7098C73.1708 11.8966 74.0215 12.1871 74.7893 12.5813C75.5778 12.9548 76.2626 13.4114 76.8436 13.9509L75.6297 16.9389C74.7582 16.2127 73.8037 15.6731 72.7661 15.3204C71.7286 14.9469 70.5874 14.7601 69.3423 14.7601C68.3878 14.7601 67.5682 14.895 66.8834 15.1648C66.1987 15.4345 65.6695 15.8184 65.296 16.3164C64.9433 16.7937 64.7669 17.3643 64.7669 18.0283C64.7669 18.7753 65.0159 19.3771 65.5139 19.8336C66.0119 20.2693 66.8627 20.6117 68.0662 20.8607L71.4589 21.5766C73.5132 22.0124 75.0383 22.6971 76.0343 23.6309C77.0511 24.5647 77.5595 25.8097 77.5595 27.366C77.5595 28.6732 77.2067 29.8249 76.5012 30.8209C75.7957 31.8169 74.7893 32.5951 73.482 33.1553C72.1955 33.6948 70.6704 33.9646 68.9066 33.9646ZM80.6054 33.6533V11.7098H84.4961V24.907H84.5583L90.6901 18.4329H95.39L87.7331 26.5256V24.907L95.8258 33.6533H91.0636L84.5583 26.868H84.4961V33.6533H80.6054ZM103.93 33.9646C102.353 33.9646 100.983 33.6429 99.8213 32.9997C98.6593 32.3564 97.7566 31.4434 97.1134 30.2606C96.4701 29.0571 96.1485 27.6461 96.1485 26.0276C96.1485 24.409 96.4701 23.0084 97.1134 21.8256C97.7566 20.6429 98.6593 19.7298 99.8213 19.0866C100.983 18.4433 102.353 18.1217 103.93 18.1217C105.507 18.1217 106.876 18.4433 108.038 19.0866C109.2 19.7298 110.103 20.6429 110.746 21.8256C111.39 23.0084 111.711 24.409 111.711 26.0276C111.711 27.6461 111.39 29.0571 110.746 30.2606C110.103 31.4434 109.2 32.3564 108.038 32.9997C106.876 33.6429 105.507 33.9646 103.93 33.9646ZM103.93 31.0077C105.092 31.0077 106.026 30.5926 106.731 29.7626C107.437 28.9119 107.789 27.6668 107.789 26.0276C107.789 24.3675 107.437 23.1329 106.731 22.3236C106.026 21.4936 105.092 21.0786 103.93 21.0786C102.768 21.0786 101.834 21.4936 101.129 22.3236C100.423 23.1329 100.07 24.3675 100.07 26.0276C100.07 27.6668 100.423 28.9119 101.129 29.7626C101.834 30.5926 102.768 31.0077 103.93 31.0077ZM121.863 33.9646C120.286 33.9646 118.917 33.6429 117.755 32.9997C116.593 32.3564 115.69 31.4434 115.047 30.2606C114.404 29.0571 114.082 27.6461 114.082 26.0276C114.082 24.409 114.404 23.0084 115.047 21.8256C115.69 20.6429 116.593 19.7298 117.755 19.0866C118.917 18.4433 120.286 18.1217 121.863 18.1217C123.441 18.1217 124.81 18.4433 125.972 19.0866C127.134 19.7298 128.037 20.6429 128.68 21.8256C129.323 23.0084 129.645 24.409 129.645 26.0276C129.645 27.6461 129.323 29.0571 128.68 30.2606C128.037 31.4434 127.134 32.3564 125.972 32.9997C124.81 33.6429 123.441 33.9646 121.863 33.9646ZM121.863 31.0077C123.026 31.0077 123.959 30.5926 124.665 29.7626C125.37 28.9119 125.723 27.6668 125.723 26.0276C125.723 24.3675 125.37 23.1329 124.665 22.3236C123.959 21.4936 123.026 21.0786 121.863 21.0786C120.701 21.0786 119.768 21.4936 119.062 22.3236C118.357 23.1329 118.004 24.3675 118.004 26.0276C118.004 27.6668 118.357 28.9119 119.062 29.7626C119.768 30.5926 120.701 31.0077 121.863 31.0077ZM138.147 33.9646C136.342 33.9646 135.004 33.4769 134.132 32.5017C133.282 31.5057 132.856 30.0531 132.856 28.1441V11.7098H136.747V27.9573C136.747 28.5591 136.83 29.0779 136.996 29.5136C137.183 29.9286 137.452 30.2399 137.805 30.4474C138.158 30.6549 138.594 30.7586 139.112 30.7586C139.341 30.7586 139.569 30.7483 139.797 30.7275C140.025 30.7068 140.243 30.6653 140.451 30.603L140.389 33.6844C140.015 33.7674 139.642 33.8297 139.268 33.8712C138.915 33.9335 138.542 33.9646 138.147 33.9646ZM148.215 33.9646C147.364 33.9646 146.534 33.8919 145.725 33.7467C144.937 33.6014 144.21 33.4043 143.546 33.1553C142.882 32.8856 142.301 32.5536 141.803 32.1593L142.799 29.607C143.318 29.939 143.878 30.2295 144.48 30.4785C145.082 30.7275 145.704 30.9143 146.348 31.0388C146.991 31.1633 147.624 31.2255 148.246 31.2255C149.242 31.2255 149.979 31.0595 150.456 30.7275C150.954 30.3748 151.203 29.9183 151.203 29.358C151.203 28.8807 151.037 28.5176 150.705 28.2686C150.394 27.9989 149.917 27.8017 149.273 27.6772L146.161 27.0858C144.874 26.8368 143.889 26.3699 143.204 25.6852C142.54 24.9797 142.208 24.077 142.208 22.9773C142.208 21.9812 142.478 21.1201 143.017 20.3938C143.577 19.6676 144.345 19.1073 145.32 18.7131C146.296 18.3188 147.416 18.1217 148.682 18.1217C149.408 18.1217 150.114 18.1943 150.799 18.3396C151.483 18.4641 152.127 18.6612 152.728 18.9309C153.351 19.18 153.89 19.512 154.347 19.927L153.289 22.4793C152.894 22.1473 152.438 21.8671 151.919 21.6389C151.4 21.3899 150.861 21.2031 150.301 21.0786C149.761 20.9334 149.232 20.8607 148.713 20.8607C147.696 20.8607 146.939 21.0371 146.441 21.3899C145.964 21.7426 145.725 22.2095 145.725 22.7905C145.725 23.2263 145.87 23.5894 146.161 23.8799C146.451 24.1704 146.897 24.3675 147.499 24.4713L150.612 25.0627C151.961 25.3117 152.977 25.7682 153.662 26.4322C154.368 27.0962 154.72 27.9885 154.72 29.109C154.72 30.1258 154.451 30.9973 153.911 31.7235C153.372 32.4498 152.614 33.0101 151.639 33.4043C150.664 33.7778 149.522 33.9646 148.215 33.9646ZM165.343 33.9646C163.621 33.9646 162.137 33.6429 160.892 32.9997C159.647 32.3564 158.682 31.4434 157.997 30.2606C157.333 29.0779 157.001 27.6772 157.001 26.0587C157.001 24.4817 157.323 23.1018 157.966 21.919C158.63 20.7362 159.533 19.8128 160.674 19.1488C161.836 18.4641 163.154 18.1217 164.627 18.1217C166.08 18.1217 167.325 18.4329 168.362 19.0554C169.4 19.678 170.199 20.5599 170.759 21.7011C171.34 22.8424 171.63 24.2015 171.63 25.7786V26.9302H160.145V24.6892H168.891L168.393 25.1561C168.393 23.745 168.082 22.666 167.459 21.919C166.837 21.1512 165.945 20.7674 164.783 20.7674C163.911 20.7674 163.164 20.9749 162.542 21.3899C161.94 21.7841 161.473 22.3548 161.141 23.1018C160.83 23.828 160.674 24.6995 160.674 25.7163V25.9342C160.674 27.0755 160.85 28.0196 161.203 28.7666C161.556 29.5136 162.085 30.0739 162.791 30.4474C163.496 30.8209 164.368 31.0077 165.405 31.0077C166.256 31.0077 167.107 30.8831 167.957 30.6341C168.808 30.3644 169.586 29.9494 170.292 29.3891L171.381 32.0037C170.655 32.6054 169.742 33.0827 168.642 33.4354C167.542 33.7882 166.443 33.9646 165.343 33.9646ZM180.003 33.9646C178.198 33.9646 176.859 33.4769 175.988 32.5017C175.137 31.5057 174.711 30.0531 174.711 28.1441V11.7098H178.602V27.9573C178.602 28.5591 178.685 29.0779 178.851 29.5136C179.038 29.9286 179.308 30.2399 179.66 30.4474C180.013 30.6549 180.449 30.7586 180.968 30.7586C181.196 30.7586 181.424 30.7483 181.652 30.7275C181.881 30.7068 182.099 30.6653 182.306 30.603L182.244 33.6844C181.87 33.7674 181.497 33.8297 181.123 33.8712C180.771 33.9335 180.397 33.9646 180.003 33.9646Z" fill="white"/>
</svg>
